<?xml version="1.0" encoding="utf-8"?>
<!-- Generator: Adobe Illustrator 23.0.6, SVG Export Plug-In . SVG Version: 6.00 Build 0)  -->
<svg version="1.1" id="Layer_1" xmlns="http://www.w3.org/2000/svg" xmlns:xlink="http://www.w3.org/1999/xlink" x="0px" y="0px"
	 viewBox="0 0 60.92001 16.34679" style="enable-background:new 0 0 60.92001 16.34679;" xml:space="preserve">
<style type="text/css">
	.st0{fill:#F7F5ED;}
</style>
<g>
	<path class="st0" d="M9.69813,11.14186c0.10801,0,0.8564-1.4987,2.24515-4.49609s2.24515-4.74298,2.5692-5.23676
		c0.32404-0.49378,0.69823-0.82747,1.12258-1.00106c0.42434-0.17359,1.10136-0.26039,2.03105-0.26039
		s1.39454,0.21603,1.39454,0.64809L18.7829,1.14283l-0.35876,0.38191c-0.23146,0.3009-0.39541,0.65001-0.49185,1.04735
		S17.78763,3.6233,17.78763,4.5337c0,3.87308,0.1003,6.69688,0.3009,8.4714c0.07715,0.69438,0.3279,1.24024,0.75224,1.63757
		c0.42434,0.39734,0.63651,0.66159,0.63651,0.79275l-0.28932,0.20831c-0.37033,0.16974-1.09943,0.25461-2.18729,0.25461
		c-1.08786,0-1.77066-0.14273-2.04841-0.4282l-0.11573-0.25461c0-0.22374,0.08487-0.68473,0.25461-1.38297
		c0.16974-0.69823,0.2546-1.39454,0.2546-2.08892c0-5.06124-0.16202-7.59186-0.48606-7.59186
		c-0.16202,0-0.89883,1.56621-2.21043,4.69862s-2.11592,4.97058-2.41296,5.51451c-0.29704,0.54393-0.68859,0.81589-1.17465,0.81589
		c-0.33947,0-1.26724-1.8536-2.78329-5.5608s-2.40525-5.5608-2.66757-5.5608c-0.21603,0-0.32404,1.89411-0.32404,5.68232
		c0,1.68194,0.027,2.71579,0.08101,3.10155s0.14466,0.84868,0.27196,1.38875s0.19095,0.89883,0.19095,1.07628
		s-0.11959,0.32404-0.35876,0.43977c-0.23917,0.11573-0.54779,0.17359-0.92584,0.17359H1.90954
		C0.63651,15.92149,0,15.75947,0,15.43542c0-0.16202,0.21796-0.43013,0.65387-0.80432
		c0.43591-0.37419,0.69052-0.69824,0.76381-0.97213c0.0733-0.27389,0.17167-1.66265,0.29511-4.16626S1.89796,5.2898,1.89796,4.39483
		S1.84396,2.87684,1.73594,2.5258S1.37911,1.80634,0.98949,1.42058S0.40505,0.74163,0.40505,0.54104
		c0-0.24689,0.71367-0.37033,2.141-0.37033c0.54779,0,1.02228,0.07522,1.42347,0.22567s0.7966,0.50921,1.18623,1.07628
		s1.20552,2.32038,2.44768,5.25991S9.54383,11.14186,9.69813,11.14186z"/>
	<path class="st0" d="M36.5358,7.12604c0.47835,0,0.71753,0.15045,0.71753,0.45135c0,0.1003-0.17938,0.37998-0.53814,0.83904
		c-0.35876,0.45906-0.70209,1.084-1.02999,1.87482c-0.3279,0.79082-0.49185,1.54885-0.49185,2.27409
		c0,0.39348,0.16395,0.78117,0.49185,1.16308c0.3279,0.38191,0.74838,0.69438,1.26145,0.93741
		c0.51307,0.24303,0.7696,0.41856,0.7696,0.52657v0.10416c0,0.04629-0.06944,0.11573-0.20831,0.20831
		c-0.47835,0.33176-1.16115,0.49764-2.04841,0.49764c-0.44749,0-1.01263-0.1273-1.69544-0.38191
		c-0.6828-0.2546-1.14572-0.38191-1.38875-0.38191c-0.24303,0-0.85061,0.16202-1.82274,0.48606
		c-0.9567,0.32404-1.78223,0.48992-2.47661,0.49764c-1.44276,0-2.5962-0.37033-3.46031-1.111
		c-0.47835-0.41663-0.83325-0.88919-1.06471-1.41769s-0.34719-1.02421-0.34719-1.48712v-0.37033
		c0-1.19587,0.63266-2.33774,1.89796-3.42559c0.71752-0.61722,1.07628-1.12258,1.07628-1.51606
		c0-0.06944-0.15431-0.48221-0.46292-1.23831c-0.30861-0.7561-0.46292-1.36947-0.46292-1.8401
		c0-1.09557,0.37033-1.97512,1.111-2.63863s1.62986-0.99527,2.66756-0.99527c1.03771,0,1.85939,0.28739,2.46504,0.86218
		c0.60565,0.57479,0.90848,1.23445,0.90848,1.97897s-0.23725,1.5122-0.71174,2.30302
		c-0.47449,0.79082-0.71174,1.49098-0.71174,2.10049s0.20831,1.21902,0.62494,1.82853s0.83325,0.91426,1.24988,0.91426
		s0.72138-0.16588,0.91426-0.49764c0.19288-0.33176,0.28932-0.69438,0.28932-1.08786L33.97818,7.9593
		C33.97818,7.4038,34.83072,7.12604,36.5358,7.12604z M25.56465,11.38489v0.39348c0,0.7561,0.28932,1.44855,0.86797,2.07734
		c0.57865,0.6288,1.28074,0.9432,2.10628,0.9432h0.48606c0.53235,0,1.08978-0.14659,1.67229-0.43977
		c0.5825-0.29318,0.87376-0.58636,0.87376-0.87954v-0.06944c0-0.06944-0.67316-0.89883-2.01948-2.48818
		c-1.34632-1.58935-2.06191-2.38403-2.14678-2.38403h-0.08101c-0.32404,0-0.69823,0.30668-1.12258,0.92005
		C25.77682,10.07136,25.56465,10.71366,25.56465,11.38489z M27.67093,3.36484c0,0.70981,0.30475,1.50063,0.91426,2.37245
		c0.24689,0.3549,0.43977,0.53236,0.57865,0.53236h0.05787c0.3549,0,0.77539-0.43591,1.26145-1.30774
		c0.22374-0.4012,0.33562-0.83711,0.33562-1.30774V3.1218c0-0.50921-0.14852-0.97599-0.44556-1.40033
		s-0.66544-0.63651-1.10522-0.63651h-0.05786c-0.36262,0-0.70209,0.17938-1.01842,0.53814
		c-0.31633,0.35876-0.47449,0.73102-0.47449,1.11679l-0.04629,0.32404V3.36484z"/>
	<path class="st0" d="M40.84673,0.12441c0.62108,0,1.11679,0.06944,1.48713,0.20831c0.69438,0.24689,1.12258,0.92198,1.2846,2.02527
		c0.07716,0.56322,0.31826,1.70508,0.72331,3.42559c0.40505,1.72051,0.74838,2.98389,1.02999,3.79014
		s0.6153,1.20937,1.00106,1.20937s0.81589-0.78696,1.29038-2.36088s0.71174-2.98582,0.71174-4.2357
		c0-0.4012-0.04243-0.77925-0.1273-1.13415l-0.13887-0.47449l-0.11573-0.45135c0-0.56322,0.21796-0.99334,0.65387-1.29038
		c0.43591-0.29704,0.9567-0.44556,1.56235-0.44556s1.14186,0.17938,1.60864,0.53814
		c0.46678,0.35876,0.70016,0.76574,0.70016,1.22095l-0.05787,0.45135l-0.08101,0.45134c0,1.17273,0.61337,3.41788,1.8401,6.73546
		c0.23146,0.63265,0.49185,0.94898,0.78117,0.94898c0.28932,0,0.51114-0.12537,0.66544-0.37612
		c0.1543-0.25075,0.48799-1.29038,1.00106-3.11891s0.81011-3.29443,0.89112-4.39772s0.13309-1.69351,0.15623-1.77066
		c0.19288-0.62494,0.79853-0.93741,1.81695-0.93741c0.50921,0,0.86797,0.09065,1.07629,0.27196s0.31247,0.4012,0.31247,0.65966
		s-0.23532,0.75803-0.70595,1.4987c-0.47063,0.74067-0.82939,1.47362-1.07628,2.19886l-0.62494,1.92111
		c-0.12344,0.37033-0.25846,0.80239-0.40505,1.29617l-0.39348,1.2846c-0.89497,2.80837-1.48134,4.46716-1.75909,4.97637
		c-0.44749,0.81011-0.93355,1.21516-1.45819,1.21516c-0.59408,0-1.11486-0.51307-1.56235-1.5392
		c-0.22374-0.51692-0.66159-1.81888-1.31353-3.90587s-1.05121-3.31565-1.1978-3.68598l-0.21989-0.47449
		c-0.17745,0-0.66159,1.18623-1.4524,3.55868c-0.79082,2.37245-1.33668,3.88658-1.63757,4.54238
		c-0.47063,1.02614-0.99142,1.5392-1.56235,1.5392c-0.57093,0-1.06471-0.41663-1.48134-1.24988
		c-0.18517-0.37805-0.68859-1.92111-1.51027-4.62918C41.73785,6.90616,41.20935,5.22808,40.97403,4.58
		s-0.57865-1.35789-1.02999-2.12942c-0.45134-0.77153-0.67702-1.24988-0.67702-1.43505s0.0733-0.34719,0.21989-0.48606
		C39.77237,0.25943,40.22565,0.12441,40.84673,0.12441z"/>
</g>
</svg>
