<svg id="Group_189" data-name="Group 189" xmlns="http://www.w3.org/2000/svg" width="17.646" height="17.698" viewBox="0 0 17.646 17.698">
  <g id="Group_185" data-name="Group 185">
    <g id="Group_184" data-name="Group 184">
      <path id="Path_282" data-name="Path 282" d="M2651.98,3980.171c2.357,0,2.635.008,3.565.051a4.917,4.917,0,0,1,1.639.3,2.927,2.927,0,0,1,1.674,1.679,4.923,4.923,0,0,1,.3,1.643c.042.934.051,1.213.051,3.576s-.009,2.643-.051,3.576a4.914,4.914,0,0,1-.3,1.643,2.924,2.924,0,0,1-1.674,1.679,4.821,4.821,0,0,1-1.639.3c-.93.043-1.208.052-3.565.052s-2.634-.009-3.565-.052a4.818,4.818,0,0,1-1.638-.3,2.921,2.921,0,0,1-1.674-1.679,4.908,4.908,0,0,1-.3-1.643c-.042-.933-.051-1.213-.051-3.576s.009-2.642.051-3.576a4.917,4.917,0,0,1,.3-1.643,2.923,2.923,0,0,1,1.674-1.679,4.914,4.914,0,0,1,1.638-.3c.931-.043,1.209-.051,3.565-.051m0-1.6c-2.4,0-2.7.01-3.637.054a6.474,6.474,0,0,0-2.142.411,4.515,4.515,0,0,0-2.58,2.589,6.483,6.483,0,0,0-.41,2.147c-.043.945-.053,1.245-.053,3.648s.009,2.705.053,3.649a6.475,6.475,0,0,0,.41,2.148,4.521,4.521,0,0,0,2.58,2.588,6.452,6.452,0,0,0,2.142.412c.941.042,1.242.052,3.637.052s2.7-.01,3.638-.052a6.445,6.445,0,0,0,2.142-.412,4.524,4.524,0,0,0,2.581-2.588,6.527,6.527,0,0,0,.41-2.148c.044-.944.053-1.245.053-3.649s-.009-2.7-.053-3.648a6.534,6.534,0,0,0-.41-2.147,4.34,4.34,0,0,0-1.018-1.568,4.294,4.294,0,0,0-1.563-1.021,6.467,6.467,0,0,0-2.142-.411c-.94-.043-1.241-.054-3.638-.054" transform="translate(-2643.158 -3978.575)" fill="#f3f4ef"/>
      <path id="Path_283" data-name="Path 283" d="M2653.731,3984.637a4.544,4.544,0,1,0,4.53,4.543,4.537,4.537,0,0,0-4.53-4.543m0,7.493a2.949,2.949,0,1,1,2.94-2.949,2.944,2.944,0,0,1-2.94,2.949" transform="translate(-2644.908 -3980.332)" fill="#f3f4ef"/>
      <path id="Path_284" data-name="Path 284" d="M2662.835,3983.95a1.058,1.058,0,1,1-1.058-1.061,1.06,1.06,0,0,1,1.058,1.061" transform="translate(-2648.245 -3979.826)" fill="#f3f4ef"/>
    </g>
  </g>
</svg>
