<?xml version="1.0" encoding="utf-8"?>
<!-- Generator: Adobe Illustrator 23.0.6, SVG Export Plug-In . SVG Version: 6.00 Build 0)  -->
<svg version="1.1" id="Layer_1" xmlns="http://www.w3.org/2000/svg" xmlns:xlink="http://www.w3.org/1999/xlink" x="0px" y="0px"
	 viewBox="0 0 110.73662 28.63152" style="enable-background:new 0 0 110.73662 28.63152;" xml:space="preserve">
<style type="text/css">
	.st0{fill:#92A8D1;}
</style>
<g>
	<g>
		<path class="st0" d="M7.51447,10.07902c0.06551,0,0.51943-0.909,1.36175-2.727c0.84232-1.818,1.36175-2.87675,1.55829-3.17624
			s0.4235-0.50188,0.68087-0.60717s0.668-0.15793,1.23189-0.15793c0.56388,0,0.84583,0.13103,0.84583,0.39308l-0.16846,0.21058
			l-0.2176,0.23164c-0.14039,0.1825-0.23983,0.39425-0.29832,0.63525c-0.05849,0.241-0.08774,0.63759-0.08774,1.18977
			c0,2.34913,0.06083,4.06184,0.1825,5.13813c0.0468,0.42116,0.19888,0.75224,0.45625,0.99323
			c0.25737,0.241,0.38606,0.40127,0.38606,0.48082l-0.17548,0.12635c-0.22462,0.10295-0.66683,0.15443-1.32665,0.15443
			s-1.07395-0.08657-1.24242-0.25972l-0.07019-0.15442c0-0.13571,0.05147-0.41531,0.15442-0.83881
			c0.10295-0.4235,0.15442-0.84583,0.15442-1.26698c0-3.06978-0.09827-4.60467-0.29481-4.60467
			c-0.09827,0-0.54517,0.94995-1.34069,2.84984s-1.28336,3.01479-1.46353,3.3447c-0.18016,0.32991-0.41765,0.49486-0.71246,0.49486
			c-0.2059,0-0.76861-1.12426-1.68814-3.37278S3.98142,5.78321,3.82232,5.78321c-0.13103,0-0.19654,1.14883-0.19654,3.44648
			c0,1.02014,0.01638,1.6472,0.04914,1.88117c0.03276,0.23398,0.08774,0.51475,0.16495,0.84232
			c0.07721,0.32757,0.11582,0.54517,0.11582,0.65279c0,0.10763-0.07253,0.19654-0.2176,0.26673
			C3.59302,12.9429,3.40584,12.978,3.17654,12.978H2.79048c-0.77212,0-1.15819-0.09827-1.15819-0.29481
			c0-0.09827,0.1322-0.26088,0.39659-0.48784s0.41882-0.4235,0.46327-0.58962c0.04446-0.16612,0.10412-1.00844,0.17899-2.52695
			c0.07487-1.51851,0.11231-2.54918,0.11231-3.092S2.7507,5.06607,2.68519,4.85315C2.61968,4.64023,2.46876,4.41678,2.23245,4.18281
			c-0.23632-0.23398-0.35448-0.4118-0.35448-0.53347c0-0.14975,0.43286-0.22462,1.29857-0.22462
			c0.33225,0,0.62004,0.04563,0.86337,0.13688c0.24334,0.09125,0.48316,0.30885,0.71948,0.6528s0.73118,1.40737,1.48458,3.19028
			S7.42088,10.07902,7.51447,10.07902z"/>
		<path class="st0" d="M15.13042,7.56611c0-0.34629,0.27492-0.65631,0.82477-0.93006
			c0.54985-0.27375,1.11958-0.41063,1.7092-0.41063c0.01872,0,0.03744,0,0.05615,0c0.56154,0,1.01078,0.06785,1.34771,0.20356
			c0.68321,0.27141,1.07395,0.847,1.17222,1.72675c0.00936,0.08891,0.01404,0.67736,0.01404,1.76536
			s0.02925,1.72558,0.08774,1.91276s0.2176,0.32523,0.47731,0.41414c0.25972,0.08891,0.38957,0.17314,0.38957,0.2527
			c0,0.16846-0.08423,0.29715-0.2527,0.38606c-0.33693,0.17782-0.668,0.26673-0.99323,0.26673
			c-0.32523,0-0.56739-0.07487-0.7265-0.22462c-0.28545-0.26673-0.43754-0.4001-0.45625-0.4001s-0.28311,0.11816-0.79318,0.35448
			c-0.51007,0.23632-0.95697,0.35448-1.34069,0.35448c-0.57558,0-1.02716-0.1591-1.35473-0.47731
			c-0.32757-0.31821-0.49135-0.70427-0.49135-1.15819v-0.17548c0-0.48667,0.21058-0.91485,0.63174-1.28453
			c0.42116-0.36968,1.17924-0.65748,2.27426-0.86337c0.39776-0.07487,0.64812-0.14507,0.75107-0.21058
			c0.2059-0.13103,0.30885-0.39776,0.30885-0.8002s-0.10763-0.71129-0.32289-0.92655
			c-0.21526-0.21526-0.50305-0.32289-0.86338-0.32289c-0.36032,0-0.70778,0.20941-1.04237,0.62823
			c-0.33459,0.41882-0.63993,0.62823-0.91602,0.62823C15.29421,8.27506,15.13042,8.03874,15.13042,7.56611z M18.54181,9.83335
			h-0.11933c-0.61302,0-1.12426,0.13688-1.53372,0.41063s-0.61419,0.61419-0.61419,1.02131v0.14039
			c0,0.23866,0.0737,0.45275,0.22111,0.64227c0.14741,0.18952,0.3381,0.28428,0.57207,0.28428l0.08423,0.01404h0.21058
			c0.48667,0,0.88443-0.19888,1.19328-0.59664c0.13571-0.17314,0.20356-0.52879,0.20356-1.06694c0-0.04212,0-0.08423,0-0.12635
			l0.00702-0.16846v-0.16846C18.76642,9.96203,18.69155,9.83335,18.54181,9.83335z"/>
		<path class="st0" d="M24.57139,13.91507c0,0.6294,0.04562,1.0295,0.13688,1.2003c0.09125,0.1708,0.23866,0.3264,0.44222,0.46678
			c0.20356,0.14039,0.30534,0.25971,0.30534,0.35798c0,0.21058-0.30417,0.31587-0.91251,0.31587h-0.70193
			c-1.06693,0-1.6004-0.10763-1.6004-0.32289c0-0.06551,0.13571-0.2293,0.40712-0.49135
			c0.14507-0.14039,0.25971-0.42467,0.34394-0.85285c0.08423-0.42818,0.12635-1.23891,0.12635-2.43219V9.24373l-0.01404-0.75107
			c0-0.45859-0.06083-0.79318-0.1825-1.00376c-0.04679-0.07955-0.16846-0.18835-0.365-0.3264s-0.29481-0.2562-0.29481-0.35448
			s0.05615-0.17548,0.16846-0.23164c0.365-0.17782,0.847-0.26673,1.44598-0.26673c0.15442,0,0.31236,0.09359,0.4738,0.28077
			s0.25153,0.28077,0.27024,0.28077c0.07487,0,0.22579-0.06434,0.45275-0.19303c0.22696-0.12869,0.34746-0.19771,0.3615-0.20707
			c0.40244-0.18718,0.75106-0.28077,1.04588-0.28077h0.365c0.26205,0,0.55921,0.07253,0.89145,0.2176
			c0.63642,0.27609,1.09267,0.79318,1.36876,1.55127c0.16378,0.44456,0.24568,0.87741,0.24568,1.29857v0.39308
			c0,0.4352-0.08891,0.88209-0.26673,1.34069c-0.35097,0.90783-0.94527,1.52553-1.78291,1.8531
			c-0.35564,0.14039-0.76978,0.21058-1.24242,0.21058l-1.12309-0.08423C24.69306,12.97098,24.57139,13.28568,24.57139,13.91507z
			 M27.74412,9.95268V9.53854c0-0.75341-0.15442-1.35473-0.46327-1.80396c-0.30885-0.44924-0.69725-0.67385-1.16521-0.67385
			h-0.07019c-0.25738,0-0.50773,0.07136-0.75107,0.21409s-0.42935,0.32406-0.55803,0.544
			c-0.12869,0.21994-0.19303,0.86805-0.19303,1.94435v0.59664l0.00702,0.07721v0.29481l0.00702,0.07019v0.14741
			c0.00936,0.10295,0.01404,0.17782,0.01404,0.22462c0,0.39776,0.12752,0.70778,0.38255,0.93006
			c0.25504,0.22228,0.59781,0.33342,1.02833,0.33342h0.07019c0.51475,0,0.92538-0.23632,1.23189-0.70895
			S27.74412,10.66397,27.74412,9.95268z"/>
		<path class="st0" d="M30.65713,12.83761c0-0.09827,0.10646-0.22462,0.31938-0.37904
			c0.21292-0.15443,0.35682-0.39659,0.43169-0.7265c0.07487-0.32991,0.11231-1.58285,0.11231-3.75884
			s-0.02457-3.40904-0.0737-3.69917c-0.04914-0.29013-0.16963-0.49837-0.36149-0.62472
			c-0.30885-0.20122-0.46327-0.32523-0.46327-0.37202V3.19308c0-0.07955,0.06785-0.14975,0.20356-0.21058
			c0.42116-0.1825,0.9827-0.27375,1.68463-0.27375h0.14039c0.23866,0,0.3767,0.16144,0.41414,0.48433
			C33.06943,3.2352,33.07177,3.5885,33.07177,4.253v1.50915l-0.00702,0.28779v0.44222l-0.00702,0.28779v2.22512
			c0,1.38514,0.02222,2.24267,0.06668,2.57258s0.14857,0.56973,0.31236,0.71948c0.01872,0.01404,0.11699,0.07487,0.29481,0.1825
			c0.17782,0.10763,0.26674,0.2176,0.26674,0.32991c0,0.16378-0.29013,0.24568-0.8704,0.24568l-0.28779,0.01404h-0.28779
			l-1.15117,0.02106h-0.14741C30.85601,13.09031,30.65713,13.00607,30.65713,12.83761z"/>
		<path class="st0" d="M36.58142,10.38085c0,0.53347,0.20122,0.98036,0.60366,1.34069
			c0.40244,0.36032,0.91251,0.54049,1.53021,0.54049c0.24802,0,0.4738-0.03627,0.67736-0.1088
			c0.20356-0.07253,0.42584-0.16027,0.66684-0.26322c0.24099-0.10295,0.39191-0.15442,0.45274-0.15442
			c0.18718,0,0.28077,0.10061,0.28077,0.30183c0,0.27141-0.34629,0.56154-1.03886,0.87039
			c-0.44924,0.20122-0.93123,0.30183-1.44598,0.30183h-0.15442c-0.87975,0-1.60976-0.26673-2.19003-0.8002
			c-0.31353-0.29013-0.55687-0.66098-0.73001-1.11256S34.974,10.3598,34.974,9.84037l0.00702-0.16144V9.51748
			c0-0.44923,0.10295-0.89145,0.30885-1.32665c0.21058-0.4352,0.46093-0.79318,0.75106-1.07395
			c0.61302-0.58962,1.34069-0.88677,2.18301-0.89145c1.27283,0,2.11983,0.49603,2.54099,1.48809
			c0.13103,0.31353,0.19654,0.60132,0.19654,0.86337v0.14039c0,0.32289-0.13337,0.53932-0.4001,0.64929
			c-0.26674,0.10997-0.89613,0.20005-1.8882,0.27024s-1.53021,0.11699-1.61444,0.14039
			C36.74053,9.85674,36.58142,10.05797,36.58142,10.38085z M39.50146,8.52074v-0.2176c0-0.34629-0.12401-0.65864-0.37202-0.93708
			c-0.24801-0.27843-0.55219-0.41765-0.91251-0.41765h-0.13337c-0.06551,0.00936-0.10997,0.01404-0.13337,0.01404
			c-0.32757,0-0.63759,0.18718-0.93006,0.56154c-0.29247,0.37436-0.43871,0.77446-0.43871,1.2003v0.09125
			c0,0.14974,0.08891,0.22462,0.26674,0.22462c0.07019,0.01404,0.10763,0.02106,0.11231,0.02106l0.16145,0.00702h0.04211
			l0.04914-0.00702l1.35472-0.07721l0.25269-0.02808C39.2745,8.95593,39.50146,8.81087,39.50146,8.52074z"/>
		<path class="st0" d="M54.06652,7.64332c0.29013,0,0.4352,0.09125,0.4352,0.27375c0,0.06083-0.1088,0.23047-0.3264,0.5089
			c-0.2176,0.27843-0.42584,0.65748-0.62472,1.13713s-0.29832,0.93942-0.29832,1.37929c0,0.23866,0.09944,0.4738,0.29832,0.70544
			c0.19888,0.23164,0.45391,0.42116,0.7651,0.56856c0.31119,0.14741,0.46679,0.25387,0.46679,0.31938v0.06317
			c0,0.02808-0.04211,0.07019-0.12635,0.12635c-0.29013,0.20122-0.70427,0.30183-1.24242,0.30183
			c-0.27141,0-0.61419-0.07721-1.02833-0.23164s-0.69491-0.23164-0.84232-0.23164s-0.51592,0.09827-1.10554,0.29481
			c-0.58026,0.19654-1.08097,0.29715-1.50213,0.30183c-0.87507,0-1.57467-0.22462-2.09877-0.67385
			c-0.29013-0.2527-0.50539-0.53932-0.64578-0.85987c-0.14038-0.32055-0.21058-0.62121-0.21058-0.90198v-0.22462
			c0-0.72533,0.38372-1.4179,1.15117-2.07771c0.4352-0.37436,0.6528-0.68087,0.6528-0.91953
			c0-0.04212-0.09359-0.29247-0.28077-0.75107c-0.18718-0.45859-0.28077-0.83062-0.28077-1.11607
			c0-0.66449,0.22462-1.19796,0.67385-1.6004s0.98855-0.60366,1.61795-0.60366s1.12777,0.17431,1.49511,0.52294
			s0.55101,0.74873,0.55101,1.2003c0,0.45158-0.14389,0.91719-0.43169,1.39684s-0.43169,0.90432-0.43169,1.274
			c0,0.36968,0.12635,0.73937,0.37904,1.10905c0.2527,0.36968,0.50539,0.55453,0.75809,0.55453
			c0.25269,0,0.43754-0.10061,0.55452-0.30183c0.11699-0.20122,0.17548-0.42116,0.17548-0.65981l-0.04913-0.37904
			C52.51525,7.81179,53.03234,7.64332,54.06652,7.64332z M47.41222,10.22643v0.23866c0,0.45859,0.17548,0.87858,0.52645,1.25997
			c0.35097,0.38138,0.77681,0.57207,1.27752,0.57207h0.29481c0.32289,0,0.66098-0.08891,1.01429-0.26673
			c0.35331-0.17782,0.52996-0.35565,0.52996-0.53347v-0.04212c0-0.04212-0.40829-0.54517-1.22487-1.50915
			c-0.81658-0.96398-1.25061-1.44598-1.30208-1.44598h-0.04913c-0.19654,0-0.4235,0.18601-0.68087,0.55803
			C47.5409,9.42974,47.41222,9.81931,47.41222,10.22643z M48.68973,5.36205c0,0.43052,0.18484,0.91017,0.55452,1.43896
			c0.14975,0.21526,0.26674,0.32289,0.35097,0.32289h0.0351c0.21526,0,0.47029-0.26439,0.76511-0.79318
			c0.1357-0.24334,0.20356-0.50773,0.20356-0.79318V5.21464c0-0.30885-0.09008-0.59196-0.27024-0.84934
			s-0.40361-0.38606-0.67035-0.38606h-0.0351c-0.21994,0-0.42584,0.1088-0.6177,0.3264s-0.28779,0.44339-0.28779,0.67736
			l-0.02808,0.19654V5.36205z"/>
		<path class="st0" d="M61.16597,3.39664c0.3767,0,0.67736,0.04212,0.90198,0.12635c0.42116,0.14975,0.68087,0.5592,0.77914,1.22838
			c0.04679,0.34161,0.19303,1.03418,0.43871,2.07772c0.24567,1.04354,0.45391,1.80981,0.62472,2.29882
			c0.1708,0.48901,0.37319,0.73352,0.60717,0.73352s0.49486-0.47731,0.78265-1.43194
			c0.28779-0.95463,0.43169-1.81098,0.43169-2.56907c0-0.24334-0.02574-0.47263-0.07721-0.68789l-0.08424-0.28779l-0.07019-0.27375
			c0-0.34161,0.13219-0.60249,0.39659-0.78265c0.26439-0.18016,0.58026-0.27024,0.9476-0.27024
			c0.36735,0,0.69257,0.1088,0.97569,0.3264s0.42467,0.46444,0.42467,0.74054l-0.0351,0.27375l-0.04913,0.27375
			c0,0.71129,0.37202,2.07304,1.11607,4.08524c0.14039,0.38372,0.29832,0.57558,0.47381,0.57558s0.31002-0.07604,0.40361-0.22813
			s0.29598-0.78265,0.60717-1.8917s0.49135-1.99816,0.54048-2.66734c0.04914-0.66917,0.08073-1.02716,0.09476-1.07395
			c0.11699-0.37904,0.48433-0.56856,1.10203-0.56856c0.30885,0,0.52645,0.05498,0.6528,0.16495
			c0.12634,0.10997,0.18951,0.24334,0.18951,0.4001c0,0.15676-0.14272,0.45976-0.42818,0.909
			c-0.28545,0.44924-0.50304,0.89379-0.65279,1.33367l-0.37904,1.16521c-0.07487,0.22462-0.15676,0.48667-0.24567,0.78616
			L71.39661,8.9419c-0.54283,1.70335-0.89848,2.70945-1.06693,3.0183c-0.27142,0.49135-0.56623,0.73703-0.88444,0.73703
			c-0.36032,0-0.67619-0.31119-0.9476-0.93357c-0.13571-0.31353-0.40128-1.1032-0.79669-2.36902
			c-0.39542-1.26582-0.63759-2.01103-0.7265-2.23565L66.84107,6.8712c-0.10763,0-0.40127,0.71948-0.88092,2.15844
			s-0.81073,2.35732-0.99323,2.75508c-0.28545,0.62238-0.60132,0.93357-0.94761,0.93357c-0.34628,0-0.64577-0.2527-0.89847-0.75809
			c-0.11231-0.2293-0.41765-1.16521-0.91602-2.80772s-0.81892-2.66032-0.96165-3.0534
			c-0.14272-0.39308-0.35096-0.8236-0.62472-1.29155c-0.27375-0.46795-0.41063-0.75809-0.41063-0.87039
			c0-0.11231,0.04446-0.21058,0.13337-0.29481C60.51434,3.47853,60.78926,3.39664,61.16597,3.39664z"/>
		<path class="st0" d="M74.68866,12.69722c0-0.08423,0.10061-0.23749,0.30183-0.45976
			c0.20122-0.22228,0.32639-0.44573,0.37553-0.67034c0.04914-0.22462,0.07371-1.40854,0.07371-3.55177
			s-0.04913-3.4418-0.14741-3.89572c-0.04679-0.21994-0.14507-0.38138-0.29481-0.48433
			c-0.27142-0.19186-0.40712-0.29481-0.40712-0.30885c0-0.17314,0.09125-0.29481,0.27375-0.365
			c0.34628-0.13571,0.75107-0.20356,1.21434-0.20356h0.23164c0.21526,0,0.36852,0.08657,0.45976,0.25971
			c0.09126,0.17314,0.13688,0.55453,0.13688,1.14415l-0.00702,0.25971c-0.00468,0.17314-0.00702,0.34629-0.00702,0.51943
			l-0.01404,0.51943c0,0.17314,0,0.34629,0,0.51943c0,0.61302,0.10763,0.91953,0.32288,0.91953
			c0.0234-0.00468,0.14273-0.05381,0.35799-0.14741c0.65046-0.29013,1.19563-0.4352,1.6355-0.4352
			c0.8236,0,1.40153,0.32991,1.73377,0.98972c0.21994,0.44924,0.32991,1.55361,0.32991,3.31311
			c0,0.67853,0.02457,1.10086,0.0737,1.26698s0.1825,0.3381,0.4001,0.51592c0.2176,0.17782,0.32639,0.29013,0.32639,0.33693
			c0,0.14507-0.09476,0.24334-0.28428,0.29481c-0.18952,0.05148-0.67268,0.07721-1.44949,0.07721h-0.24567
			c-0.51007,0-0.76511-0.10295-0.76511-0.30885c0-0.04679,0.06084-0.16495,0.1825-0.35448
			c0.12167-0.18952,0.20122-0.40361,0.23866-0.64227c0.03744-0.23866,0.05615-0.86337,0.05615-1.87416
			s-0.04679-1.6472-0.14038-1.90925c-0.32289-0.42116-0.68088-0.67853-1.07396-0.77212c-0.53815,0-0.96866,0.19186-1.29155,0.57558
			c-0.23866,0.28077-0.35799,0.9207-0.35799,1.91978s0.0234,1.6355,0.07019,1.90925c0.0468,0.27375,0.14858,0.52177,0.30534,0.74405
			c0.15676,0.22228,0.23515,0.35915,0.23515,0.41063c0,0.16846-0.47498,0.2527-1.42492,0.2527S74.68866,12.94056,74.68866,12.69722z
			"/>
		<path class="st0" d="M83.59616,7.20111c-0.24333-0.11699-0.36501-0.22696-0.36501-0.32991
			c0-0.10295,0.04913-0.18484,0.14741-0.24568c0.34161-0.2059,0.8821-0.30885,1.62146-0.30885h0.20356
			c0.25269,0,0.39542,0.11699,0.42818,0.35097c0.01872,0.12635,0.02808,0.97685,0.02808,2.55152s0.03276,2.47781,0.09827,2.70945
			c0.06551,0.23164,0.22227,0.40946,0.47029,0.53347c0.24802,0.12401,0.37202,0.24919,0.37202,0.37553
			c0,0.17782-0.58026,0.26673-1.74079,0.26673l-0.21058,0.00702H83.7927c-0.34161,0-0.51241-0.08423-0.51241-0.2527
			c0-0.14039,0.10413-0.27609,0.31236-0.40712s0.35213-0.27609,0.43169-0.4352c0.08891-0.17314,0.13337-0.57792,0.13337-1.21434
			l0.00702-0.22462v-0.2176l0.00702-0.32991v-0.2176l0.00702-0.2176c0-1.10905-0.03627-1.756-0.1088-1.94084
			C83.99743,7.46901,83.8395,7.3181,83.59616,7.20111z M85.8283,4.0705c0,0.2059-0.08774,0.39659-0.26322,0.57207
			s-0.3498,0.26322-0.52294,0.26322c-0.03744,0.00936-0.06785,0.01404-0.09125,0.01404l-0.15443,0.01404
			c-0.23398,0-0.44339-0.07721-0.62823-0.23164c-0.18484-0.15443-0.27726-0.35331-0.27726-0.59664V3.97924
			c0-0.24334,0.0971-0.44807,0.2913-0.61419s0.41765-0.24919,0.67034-0.24919h0.0351l0.23866,0.02808
			c0.14507,0,0.29597,0.07838,0.45274,0.23515c0.15676,0.15676,0.23515,0.3147,0.23515,0.4738l0.01404,0.06317V4.0705z"/>
		<path class="st0" d="M92.86867,11.26178c0,0.53581-0.21994,0.9944-0.65981,1.37578
			c-0.43988,0.38138-1.04822,0.57207-1.82502,0.57207h-0.18952c-0.88444,0-1.55829-0.10997-2.02156-0.32991
			c-0.25738-0.12167-0.38606-0.39308-0.38606-0.81424V11.89c0-0.53815,0.10061-0.80722,0.30183-0.80722
			c0.16846,0,0.36735,0.15793,0.59664,0.4738c0.2293,0.31587,0.42116,0.52762,0.57558,0.63525
			c0.29949,0.2059,0.65163,0.30885,1.0564,0.30885c0.40479,0,0.7031-0.0854,0.89497-0.2562
			c0.19186-0.1708,0.28779-0.39659,0.28779-0.67736s-0.16378-0.54049-0.49135-0.77914
			c-0.17315-0.12635-0.57676-0.32523-1.21083-0.59664c-0.63408-0.27141-1.10788-0.5557-1.42141-0.85285
			s-0.4703-0.71714-0.4703-1.25996c0-0.54283,0.22696-0.98387,0.68088-1.32314c0.45391-0.33927,1.01311-0.5089,1.67761-0.5089
			h0.18952c0.87039,0,1.48107,0.10295,1.83204,0.30885c0.1825,0.10763,0.27375,0.40712,0.27375,0.89847
			s-0.11699,0.73703-0.35096,0.73703c-0.13103,0-0.31002-0.14624-0.53698-0.43871c-0.22696-0.29247-0.43403-0.50071-0.62121-0.62472
			s-0.44572-0.18601-0.77563-0.18601s-0.59079,0.07487-0.78265,0.22462c-0.19186,0.14975-0.28779,0.36617-0.28779,0.64929
			c0,0.28311,0.17548,0.53698,0.52644,0.76159c0.08891,0.06083,0.47732,0.241,1.16521,0.54049
			c0.68789,0.29949,1.16052,0.5709,1.4179,0.81424C92.68382,10.28258,92.86867,10.72597,92.86867,11.26178z"/>
		<path class="st0" d="M96.89775,10.1071c-0.28545,0-0.42818,0.4118-0.42818,1.2354c0,0.29013,0.06785,0.57324,0.20356,0.84934
			l0.18952,0.32289c0.06551,0.11699,0.09827,0.20122,0.09827,0.2527c0,0.16846-0.47029,0.2527-1.41088,0.2527
			s-1.41088-0.07955-1.41088-0.23866c0-0.04212,0.07838-0.16963,0.23515-0.38255c0.15677-0.21292,0.27142-0.46327,0.34395-0.75107
			c0.07253-0.28779,0.1088-0.95814,0.1088-2.01103l0.00703-0.26673c0.00935-0.23866,0.01404-0.41648,0.01404-0.53347
			l0.01404-0.53347l0.00702-0.54049V6.67466c0-1.35239-0.02457-2.15142-0.07371-2.39709
			c-0.04913-0.24568-0.13687-0.43169-0.26322-0.55803L94.37782,3.6002l-0.16846-0.10529
			c-0.1357-0.09827-0.20356-0.19069-0.20356-0.27726s0.05616-0.16261,0.16846-0.22813
			c0.31821-0.1825,0.80956-0.27375,1.47406-0.27375h0.23866c0.26673,0,0.43285,0.18952,0.49837,0.56856
			c0.0234,0.14039,0.0351,1.1886,0.0351,3.14465L96.41341,7.2362c0,0.6411,0.00234,0.9827,0.00702,1.02482
			c0.05148,0.44456,0.17315,0.66683,0.36501,0.66683c0.19186,0,0.52177-0.25387,0.98972-0.76159s0.70193-0.86922,0.70193-1.08448
			l-0.02106-0.25269c0-0.1591,0.062-0.27141,0.18601-0.33693s0.38255-0.09827,0.77563-0.09827
			c0.89379,0,1.34069,0.09593,1.34069,0.28779c0,0.00468-0.41414,0.33927-1.24242,1.00376s-1.24242,1.13947-1.24242,1.42492
			s0.56856,1.09267,1.70569,2.42166c0.24802,0.29013,0.5206,0.54049,0.81775,0.75107
			c0.29715,0.21058,0.44572,0.35096,0.44572,0.42116c0,0.2293-0.34628,0.34395-1.03886,0.34395h-0.51241
			c-0.44924,0-0.77213-0.12869-0.96867-0.38606l-0.28078-0.68087c-0.11699-0.28077-0.31119-0.61302-0.5826-0.99674
			C97.44292,10.39957,97.12237,10.1071,96.89775,10.1071z"/>
		<path class="st0" d="M104.49966,7.2713c0,0.50071,0.3884,1.68931,1.16521,3.56581c0.10763,0.26205,0.1942,0.39308,0.25971,0.39308
			s0.18719-0.18952,0.36501-0.56856c0.64577-1.36643,0.96867-2.39826,0.96867-3.09551c0-0.20122-0.03276-0.365-0.09827-0.49135
			l-0.07721-0.12635c-0.11231-0.14975-0.16846-0.25503-0.16846-0.31587c0-0.1825,0.29715-0.27375,0.89146-0.27375h0.44923
			c0.56622,0,0.84933,0.10763,0.84933,0.32289c0,0.12167-0.11582,0.30768-0.34746,0.55803s-0.39893,0.49252-0.50188,0.7265
			c-0.10295,0.23398-0.47849,1.21083-1.1266,2.93056s-1.14999,2.89429-1.50564,3.52369
			c-0.35564,0.6294-0.68672,1.08214-0.99323,1.35824c-0.30651,0.27609-0.62121,0.41414-0.9441,0.41414h-0.1825
			c-0.24333,0-0.4504-0.06903-0.62121-0.20707c-0.1708-0.13805-0.2562-0.28077-0.2562-0.42818s0.05966-0.26673,0.17899-0.35798
			c0.11932-0.09125,0.27726-0.13688,0.4738-0.13688l0.16145,0.01404c0.07019,0.00468,0.17783,0.00702,0.32289,0.00702
			c0.32757,0,0.62939-0.21058,0.90549-0.63174c0.27609-0.42116,0.41414-0.847,0.41414-1.27751
			c0-0.43052-0.66683-2.05666-2.0005-4.87842c-0.12167-0.25737-0.30066-0.52411-0.53697-0.8002
			c-0.23632-0.27609-0.35448-0.46795-0.35448-0.57558c0-0.17782,0.12401-0.303,0.37202-0.37553s0.64694-0.1088,1.19679-0.1088
			c0.54984,0,0.82477,0.11933,0.82477,0.35799C104.52773,7.03732,104.49966,7.19643,104.49966,7.2713z"/>
	</g>
	<g>
		<path class="st0" d="M36.75077,19.25443h0.1591c0.21819,0,0.46971,0.02691,0.75341,0.08189
			c0.2837,0.05381,0.50714,0.08657,0.66917,0.09593s0.29013,0.03978,0.38372,0.09359
			c0.18075,0.10295,0.27142,0.36968,0.27142,0.8002c0,0.43052-0.08131,0.64577-0.24334,0.64577
			c-0.05323,0-0.18426-0.11933-0.39308-0.35798c-0.20882-0.23866-0.40887-0.40946-0.59898-0.51241
			c-0.33693-0.18133-0.71422-0.27141-1.13245-0.27141c-0.24041,0-0.48199,0.06551-0.72533,0.19654
			c-0.73293,0.38957-1.09969,1.23774-1.09969,2.54567c0.00293,0.81073,0.19186,1.46587,0.56622,1.96541
			c0.37436,0.49837,0.89555,0.74873,1.56297,0.74873c0.5709,0,1.05465-0.18952,1.45066-0.56623
			c0.24626-0.23398,0.4042-0.35097,0.47263-0.35097c0.13103,0,0.19654,0.09476,0.19654,0.28545
			c0,0.09593-0.06083,0.24802-0.1825,0.45392c-0.12167,0.2059-0.25737,0.35097-0.40712,0.4352
			c-0.42116,0.23398-0.96866,0.35097-1.64252,0.35097h-0.16378c-0.37729,0-0.75984-0.06902-1.14648-0.2059
			c-0.78324-0.27843-1.33191-0.82711-1.6472-1.6472c-0.16203-0.42818-0.24334-0.89496-0.24334-1.40152
			c0-0.50773,0.08131-0.97334,0.24334-1.39684c0.32757-0.86103,0.88268-1.44598,1.66592-1.75483
			C35.91605,19.33164,36.32668,19.25443,36.75077,19.25443z"/>
		<path class="st0" d="M40.07792,22.1417c0-0.23164,0.18309-0.43754,0.54985-0.62004
			c0.36676-0.1825,0.74638-0.27375,1.13947-0.27375c0.01228,0,0.02515,0,0.03744,0c0.37436,0,0.67385,0.04446,0.89847,0.13571
			c0.45567,0.18016,0.71597,0.56388,0.78148,1.15117c0.00644,0.05849,0.00936,0.45157,0.00936,1.1769s0.0193,1.15,0.05849,1.27518
			c0.03919,0.12401,0.14507,0.21643,0.31821,0.27609c0.17314,0.05849,0.25971,0.11465,0.25971,0.16846
			c0,0.11231-0.05615,0.19771-0.16846,0.25737c-0.22462,0.11816-0.44514,0.17782-0.66216,0.17782
			c-0.21701,0-0.37846-0.05031-0.48433-0.14975c-0.19011-0.17782-0.29189-0.26673-0.30417-0.26673
			c-0.01229,0-0.18894,0.07838-0.52879,0.23632c-0.33985,0.15676-0.63817,0.23632-0.89379,0.23632
			c-0.38372,0-0.68497-0.10646-0.90315-0.31821c-0.21818-0.21292-0.32757-0.47029-0.32757-0.77212v-0.11699
			c0-0.32523,0.14039-0.61068,0.42116-0.85636c0.28077-0.24685,0.78616-0.43871,1.51617-0.57558
			c0.26498-0.05031,0.43227-0.0971,0.50071-0.14039c0.13746-0.08774,0.2059-0.26556,0.2059-0.53347
			c0-0.26907-0.07195-0.47497-0.21526-0.6177c-0.14331-0.1439-0.33517-0.21526-0.57558-0.21526
			c-0.24041,0-0.47205,0.13922-0.69491,0.41882c-0.22286,0.27843-0.42642,0.41882-0.61068,0.41882
			C40.1873,22.61434,40.07792,22.4564,40.07792,22.1417z M42.35217,23.65319h-0.07955c-0.40887,0-0.74931,0.09125-1.02248,0.27375
			c-0.27317,0.1825-0.40946,0.40946-0.40946,0.68087v0.09359c0,0.1591,0.04914,0.30183,0.1474,0.42818
			c0.09827,0.12635,0.2252,0.18952,0.38139,0.18952l0.05615,0.00936h0.14039c0.32464,0,0.58962-0.13337,0.79552-0.39776
			c0.09066-0.11582,0.1357-0.3533,0.1357-0.71129c0-0.02808,0-0.05615,0-0.08423l0.00468-0.11231v-0.11231
			C42.50192,23.7386,42.4522,23.65319,42.35217,23.65319z"/>
		<path class="st0" d="M45.52958,25.78238c-0.43988,0-0.65981-0.06317-0.65981-0.18718c0-0.10295,0.05791-0.18718,0.17314-0.2527
			c0.20882-0.11933,0.33049-0.22579,0.36501-0.32055c0.03451-0.09593,0.05148-0.54634,0.05148-1.35239
			c0-0.80722-0.02398-1.27985-0.07253-1.4179c-0.04855-0.13922-0.13629-0.25386-0.2644-0.34395
			c-0.1281-0.09125-0.19186-0.16378-0.19186-0.21994c0-0.05615,0.04211-0.10997,0.12635-0.1591
			c0.19654-0.11582,0.50832-0.17314,0.93591-0.17314c0.1281,0,0.22754,0.04329,0.29949,0.13103
			c0.02515,0.03042,0.06025,0.09827,0.10529,0.20356c0.04504,0.10412,0.07545,0.15676,0.09125,0.15676
			c0.05908-0.00351,0.1515-0.04563,0.2761-0.12635c0.43052-0.29013,0.82067-0.4352,1.16988-0.4352h0.00936h0.14975
			c0.25269,0,0.48024,0.062,0.68321,0.18718c0.20298,0.12401,0.35974,0.31119,0.47029,0.56154
			c0.11055,0.24919,0.16612,0.79318,0.16612,1.63082s0.01814,1.30559,0.05381,1.40386
			c0.03568,0.09827,0.13746,0.18952,0.30417,0.27375c0.16671,0.08423,0.25035,0.16612,0.25035,0.24802
			c0,0.14038-0.4428,0.21058-1.32899,0.21058h-0.14038c-0.28077,0-0.42116-0.06785-0.42116-0.20122
			c0-0.02808,0.03451-0.09593,0.10295-0.20356c0.06844-0.10763,0.11523-0.22696,0.14039-0.35798
			c0.02515-0.13103,0.03743-0.56271,0.03743-1.29389c0-0.73235-0.04504-1.20264-0.1357-1.41088
			c-0.12459-0.28779-0.33225-0.43052-0.62238-0.43052c-0.21233,0-0.41706,0.04914-0.61536,0.14741s-0.34161,0.23632-0.43052,0.41648
			c-0.08891,0.17899-0.13337,0.60834-0.13337,1.28687s0.01872,1.08799,0.05616,1.23072
			c0.03744,0.14156,0.08248,0.2562,0.13571,0.34395l0.17314,0.28077c0,0.12167-0.24509,0.1825-0.73469,0.1825l-0.28545-0.00936
			H45.52958z"/>
		<path class="st0" d="M53.8264,21.29003c0.02808-0.06902,0.04212-0.27492,0.04212-0.6177
			c0-0.34395-0.02633-0.59547-0.07955-0.75574c-0.05323-0.16144-0.14565-0.29364-0.27843-0.39776
			c-0.13278-0.10529-0.19888-0.18367-0.19888-0.23632c0-0.05382,0.03568-0.10061,0.10763-0.14039
			c0.19361-0.11231,0.50832-0.16846,0.94527-0.16846h0.11231c0.21819,0,0.34336,0.11699,0.37436,0.35096
			c0.00936,0.07136,0.01404,0.96282,0.01404,2.67436c0,1.71037,0.01229,2.64979,0.03744,2.81708
			c0.02515,0.16612,0.08423,0.29715,0.17782,0.39074c0.01872,0.01872,0.07897,0.06551,0.18016,0.14272
			c0.10119,0.07604,0.15208,0.14273,0.15208,0.20122c0,0.05733-0.04387,0.10997-0.13103,0.15676
			c-0.17782,0.09593-0.46795,0.14507-0.8704,0.14507c-0.14038,0-0.25269-0.04211-0.33693-0.12635
			c-0.16554-0.16612-0.25504-0.24802-0.26907-0.24802s-0.08482,0.0351-0.21292,0.10763
			c-0.12811,0.07136-0.28136,0.1439-0.46094,0.2176c-0.17958,0.07253-0.40186,0.10997-0.66683,0.10997
			c-0.26498,0-0.51007-0.05849-0.73469-0.17314c-0.41473-0.21292-0.70661-0.56388-0.87507-1.0529
			c-0.10003-0.29364-0.14975-0.61536-0.14975-0.96398c0-0.70544,0.20181-1.27985,0.606-1.72207
			c0.40419-0.44339,0.96165-0.66449,1.67294-0.66449l0.61302,0.05615C53.7217,21.39298,53.79832,21.35788,53.8264,21.29003z
			 M53.80301,22.61434c0-0.2527-0.08131-0.45509-0.24334-0.606c-0.16203-0.15208-0.37729-0.22696-0.64578-0.22696h-0.08891
			c-0.14039,0-0.29013,0.04212-0.44924,0.12635c-0.1591,0.08423-0.29013,0.2059-0.39308,0.36501
			c-0.2059,0.31821-0.30885,0.71246-0.30885,1.18392v0.27609c0,0.46795,0.10529,0.85402,0.31587,1.16053
			c0.21058,0.30534,0.46737,0.4586,0.76979,0.4586h0.1357c0.26498,0,0.48199-0.09125,0.65046-0.27141
			c0.16846-0.18133,0.2527-0.4118,0.2527-0.69257l0.00936-0.09827v-0.09827l0.00936-0.24334c0-0.14975,0-0.29949,0-0.44924
			l0.00468-0.14974v-0.14507l-0.00468-0.05147v-0.24802l-0.00468-0.04679V22.7594
			C53.80593,22.69623,53.80301,22.64826,53.80301,22.61434z"/>
		<path class="st0" d="M56.24104,25.65604c0-0.06551,0.07136-0.14974,0.21292-0.2527
			c0.14272-0.10295,0.23866-0.26439,0.28779-0.48433c0.05031-0.21994,0.07487-1.05524,0.07487-2.50589
			s-0.01638-2.27308-0.04914-2.46612c-0.03276-0.1942-0.11231-0.33225-0.24099-0.41648
			c-0.2059-0.13454-0.30885-0.2176-0.30885-0.24801v-0.05615c0-0.05382,0.04562-0.10061,0.1357-0.14039
			c0.28077-0.12167,0.65514-0.1825,1.12309-0.1825h0.09359c0.1591,0,0.25152,0.10763,0.27609,0.32289
			c0.00351,0.02808,0.00468,0.26322,0.00468,0.70661v1.0061l-0.00468,0.19186v0.29481l-0.00468,0.19186v1.48341
			c0,0.92304,0.01521,1.49511,0.04446,1.71505c0.03041,0.21994,0.09944,0.37904,0.20824,0.47965
			c0.01287,0.00936,0.07838,0.04914,0.19654,0.12167c0.11933,0.07136,0.17782,0.14507,0.17782,0.21994
			c0,0.1088-0.19303,0.16378-0.58026,0.16378l-0.19186,0.00936h-0.19186l-0.76744,0.01404h-0.09827
			C56.37441,25.8245,56.24104,25.76835,56.24104,25.65604z"/>
		<path class="st0" d="M60.19057,24.0182c0,0.35565,0.13454,0.6528,0.40244,0.89379
			c0.26907,0.23983,0.60834,0.36032,1.02014,0.36032c0.16613,0,0.31587-0.02457,0.45158-0.07253
			c0.13571-0.04914,0.28428-0.10763,0.44456-0.17548c0.16145-0.06902,0.26205-0.10295,0.30183-0.10295
			c0.12518,0,0.18718,0.06668,0.18718,0.20122c0,0.18016-0.23046,0.37436-0.69257,0.58026
			c-0.29949,0.13337-0.62004,0.20122-0.96399,0.20122h-0.10295c-0.58611,0-1.07278-0.17782-1.46001-0.53347
			c-0.20824-0.1942-0.37085-0.44105-0.48667-0.74171c-0.11465-0.30183-0.17315-0.62472-0.17315-0.971l0.00468-0.10763v-0.10763
			c0-0.29949,0.06902-0.5943,0.2059-0.88443c0.14038-0.29013,0.30768-0.52879,0.50071-0.71597
			c0.40946-0.39308,0.89379-0.59196,1.45534-0.5943c0.84933,0,1.41322,0.32991,1.69399,0.99206
			c0.08774,0.20824,0.13103,0.4001,0.13103,0.57558v0.09359c0,0.21526-0.08891,0.35915-0.26674,0.43286
			c-0.17782,0.07253-0.59664,0.13337-1.2588,0.18016c-0.66098,0.0468-1.02014,0.07721-1.07629,0.09359
			C60.29703,23.6684,60.19057,23.80294,60.19057,24.0182z M62.13726,22.77812v-0.14507c0-0.23164-0.08189-0.43988-0.24802-0.62472
			c-0.16495-0.18601-0.36734-0.27843-0.60834-0.27843h-0.08891c-0.04329,0.00585-0.07253,0.00936-0.08891,0.00936
			c-0.2176,0-0.42467,0.12401-0.62004,0.37436c-0.1942,0.24919-0.29247,0.51592-0.29247,0.8002v0.06083
			c0,0.09944,0.05966,0.14974,0.17782,0.14974c0.04679,0.00936,0.07253,0.01404,0.07487,0.01404l0.10763,0.00468h0.02808
			l0.03276-0.00468l0.90315-0.05147l0.16846-0.01872C61.98635,23.06825,62.13726,22.97115,62.13726,22.77812z"/>
		<path class="st0" d="M69.58241,19.25443h0.1591c0.21877,0,0.4703,0.02691,0.75341,0.08189
			c0.28428,0.05381,0.50773,0.08657,0.66917,0.09593c0.16261,0.00936,0.29013,0.03978,0.38372,0.09359
			c0.18133,0.10295,0.27142,0.36968,0.27142,0.8002c0,0.43052-0.08073,0.64577-0.24334,0.64577
			c-0.05264,0-0.18367-0.11933-0.39308-0.35798c-0.20824-0.23866-0.40829-0.40946-0.59898-0.51241
			c-0.33692-0.18133-0.71362-0.27141-1.13245-0.27141c-0.23982,0-0.48199,0.06551-0.72533,0.19654
			c-0.73235,0.38957-1.09969,1.23774-1.09969,2.54567c0.00351,0.81073,0.19186,1.46587,0.56622,1.96541
			c0.37437,0.49837,0.89613,0.74873,1.56297,0.74873c0.57091,0,1.05524-0.18952,1.45066-0.56623
			c0.24684-0.23398,0.40478-0.35097,0.47263-0.35097c0.13103,0,0.19654,0.09476,0.19654,0.28545
			c0,0.09593-0.06084,0.24802-0.1825,0.45392c-0.12167,0.2059-0.25738,0.35097-0.40712,0.4352
			c-0.42116,0.23398-0.96867,0.35097-1.64252,0.35097h-0.16379c-0.3767,0-0.75925-0.06902-1.14648-0.2059
			c-0.78265-0.27843-1.33133-0.82711-1.64719-1.6472c-0.16145-0.42818-0.24334-0.89496-0.24334-1.40152
			c0-0.50773,0.08189-0.97334,0.24334-1.39684c0.32757-0.86103,0.88326-1.44598,1.66591-1.75483
			C68.74828,19.33164,69.15891,19.25443,69.58241,19.25443z"/>
		<path class="st0" d="M77.12582,23.42858v0.23398c0,0.24568-0.04913,0.51592-0.14975,0.80956
			c-0.20824,0.61068-0.62472,1.03886-1.24944,1.28219c-0.27141,0.10529-0.53346,0.15911-0.78616,0.15911h-0.15442
			c-0.59547,0-1.09267-0.20005-1.49277-0.59898c-0.18016-0.18133-0.32757-0.41999-0.43988-0.71597
			c-0.1123-0.29715-0.16846-0.61185-0.16846-0.94527v-0.07955c0-0.303,0.05381-0.60834,0.1591-0.91719
			c0.20589-0.60249,0.61068-1.02014,1.212-1.25412c0.27142-0.10646,0.5323-0.1591,0.78148-0.1591h0.23398
			c0.27843,0,0.55102,0.062,0.81892,0.18718c0.5089,0.23632,0.86337,0.61419,1.06226,1.13245
			C77.0685,22.8682,77.12582,23.15716,77.12582,23.42858z M73.7238,23.40986V23.583c0,0.52996,0.10295,0.96983,0.30885,1.31963
			c0.0971,0.16495,0.21994,0.29598,0.36968,0.39308c0.14975,0.09593,0.30183,0.14507,0.45392,0.14507h0.09359
			c0.28428,0,0.52996-0.13805,0.73703-0.41414c0.20824-0.27609,0.31119-0.66917,0.31119-1.1769v-0.33225
			c0-0.50305-0.10295-0.92889-0.31119-1.27985c-0.20707-0.35097-0.4703-0.52645-0.78851-0.52645H74.7533
			c-0.28662,0-0.52996,0.15442-0.73001,0.46327C73.82441,22.48331,73.7238,22.89511,73.7238,23.40986z"/>
	</g>
</g>
</svg>
