<?xml version="1.0" encoding="utf-8"?>
<!-- Generator: Adobe Illustrator 23.0.6, SVG Export Plug-In . SVG Version: 6.00 Build 0)  -->
<svg version="1.1" id="Layer_1" xmlns="http://www.w3.org/2000/svg" xmlns:xlink="http://www.w3.org/1999/xlink" x="0px" y="0px"
	 viewBox="0 0 23 18.71208" style="enable-background:new 0 0 23 18.71208;" xml:space="preserve">
<style type="text/css">
	.st0{fill:#F7F5ED;}
</style>
<g id="Group_45">
	<g id="Group_42">
		<path id="Path_13" class="st0" d="M16,3.35604H1c-0.55225,0-1-0.44772-1-1s0.44775-1,1-1h15c0.55225,0,1,0.44772,1,1
			S16.55225,3.35604,16,3.35604z"/>
	</g>
	<g id="Group_43">
		<path id="Path_14" class="st0" d="M22,10.35604H1c-0.55225,0-1-0.44772-1-1s0.44775-1,1-1h21c0.55225,0,1,0.44772,1,1
			S22.55225,10.35604,22,10.35604z"/>
	</g>
	<g id="Group_44">
		<path id="Path_15" class="st0" d="M16,17.35604H1c-0.55225,0-1-0.44772-1-1c0-0.55228,0.44775-1,1-1h15c0.55225,0,1,0.44772,1,1
			C17,16.90832,16.55225,17.35604,16,17.35604z"/>
	</g>
</g>
</svg>
