<svg xmlns="http://www.w3.org/2000/svg" xmlns:xlink="http://www.w3.org/1999/xlink" width="70.27" height="70.27" viewBox="0 0 70.27 70.27">
  <defs>
    <clipPath id="clip-path">
      <rect width="70.269" height="70.269" fill="none"/>
    </clipPath>
  </defs>
  <g id="Component_1_1" data-name="Component 1 – 1" transform="translate(0 0)" clip-path="url(#clip-path)">
    <g id="Path_223" data-name="Path 223" fill="none">
      <path d="M35.135,0A35.135,35.135,0,1,1,0,35.135,35.135,35.135,0,0,1,35.135,0Z" stroke="none"/>
      <path d="M 35.1345329284668 3 C 30.79507446289062 3 26.58701705932617 3.849212646484375 22.62725067138672 5.524063110351562 C 18.80105209350586 7.142402648925781 15.36414337158203 9.4598388671875 12.41199111938477 12.41199111938477 C 9.4598388671875 15.36414337158203 7.142402648925781 18.80105209350586 5.524063110351562 22.62725067138672 C 3.849212646484375 26.58701705932617 3 30.79507446289062 3 35.1345329284668 C 3 39.47399139404297 3.849212646484375 43.68205261230469 5.524063110351562 47.64181518554688 C 7.142402648925781 51.468017578125 9.4598388671875 54.90492248535156 12.41199111938477 57.85707473754883 C 15.36414337158203 60.80922698974609 18.80105209350586 63.12666320800781 22.62725067138672 64.74500274658203 C 26.58701705932617 66.41985321044922 30.79507446289062 67.26906585693359 35.1345329284668 67.26906585693359 C 39.47399139404297 67.26906585693359 43.68205261230469 66.41985321044922 47.64181518554688 64.74500274658203 C 51.468017578125 63.12666320800781 54.90492248535156 60.80922698974609 57.85707473754883 57.85707473754883 C 60.80922698974609 54.90492248535156 63.12666320800781 51.468017578125 64.74500274658203 47.64181518554688 C 66.41985321044922 43.68205261230469 67.26906585693359 39.47399139404297 67.26906585693359 35.1345329284668 C 67.26906585693359 30.79507446289062 66.41985321044922 26.58701705932617 64.74500274658203 22.62725067138672 C 63.12666320800781 18.80105209350586 60.80922698974609 15.36414337158203 57.85707473754883 12.41199111938477 C 54.90492248535156 9.4598388671875 51.468017578125 7.142402648925781 47.64181518554688 5.524063110351562 C 43.68205261230469 3.849212646484375 39.47399139404297 3 35.1345329284668 3 M 35.1345329284668 0 C 54.53879165649414 0 70.26906585693359 15.73027420043945 70.26906585693359 35.1345329284668 C 70.26906585693359 54.53879165649414 54.53879165649414 70.26906585693359 35.1345329284668 70.26906585693359 C 15.73027420043945 70.26906585693359 0 54.53879165649414 0 35.1345329284668 C 0 15.73027420043945 15.73027420043945 0 35.1345329284668 0 Z" stroke="none" fill="#fff"/>
    </g>
    <g id="Group_280" data-name="Group 280" transform="translate(-925 -992.5)">
      <path id="Path_190" data-name="Path 190" d="M20,0,10,10,0,0" transform="translate(950 1029.5)" fill="none" stroke="#fff" stroke-miterlimit="10" stroke-width="3"/>
      <path id="Path_224" data-name="Path 224" d="M20,0,10,10,0,0" transform="translate(950 1019.5)" fill="none" stroke="#fff" stroke-miterlimit="10" stroke-width="3"/>
    </g>
  </g>
</svg>
